ffmpeg version 6.1.1-3ubuntu5 Copyright (c) 2000-2023 the FFmpeg developers
  built with gcc 13 (Ubuntu 13.2.0-23ubuntu3)
  configuration: --prefix=/usr --extra-version=3ubuntu5 --toolchain=hardened --libdir=/usr/lib/x86_64-linux-gnu --incdir=/usr/include/x86_64-linux-gnu --arch=amd64 --enable-gpl --disable-stripping --disable-omx --enable-gnutls --enable-libaom --enable-libass --enable-libbs2b --enable-libcaca --enable-libcdio --enable-libcodec2 --enable-libdav1d --enable-libflite --enable-libfontconfig --enable-libfreetype --enable-libfribidi --enable-libglslang --enable-libgme --enable-libgsm --enable-libharfbuzz --enable-libmp3lame --enable-libmysofa --enable-libopenjpeg --enable-libopenmpt --enable-libopus --enable-librubberband --enable-libshine --enable-libsnappy --enable-libsoxr --enable-libspeex --enable-libtheora --enable-libtwolame --enable-libvidstab --enable-libvorbis --enable-libvpx --enable-libwebp --enable-libx265 --enable-libxml2 --enable-libxvid --enable-libzimg --enable-openal --enable-opencl --enable-opengl --disable-sndio --enable-libvpl --disable-libmfx --enable-libdc1394 --enable-libdrm --enable-libiec61883 --enable-chromaprint --enable-frei0r --enable-ladspa --enable-libbluray --enable-libjack --enable-libpulse --enable-librabbitmq --enable-librist --enable-libsrt --enable-libssh --enable-libsvtav1 --enable-libx264 --enable-libzmq --enable-libzvbi --enable-lv2 --enable-sdl2 --enable-libplacebo --enable-librav1e --enable-pocketsphinx --enable-librsvg --enable-libjxl --enable-shared
  libavutil      58. 29.100 / 58. 29.100
  libavcodec     60. 31.102 / 60. 31.102
  libavformat    60. 16.100 / 60. 16.100
  libavdevice    60.  3.100 / 60.  3.100
  libavfilter     9. 12.100 /  9. 12.100
  libswscale      7.  5.100 /  7.  5.100
  libswresample   4. 12.100 /  4. 12.100
  libpostproc    57.  3.100 / 57.  3.100
[x11grab @ 0x64e6d4582080] Stream #0: not enough frames to estimate rate; consider increasing probesize
Input #0, x11grab, from ':0.0':
  Duration: N/A, start: 1766315588.346994, bitrate: 1448067 kb/s
  Stream #0:0: Video: rawvideo (BGR[0] / 0x524742), bgr0, 1718x878, 1448067 kb/s, 30 fps, 1000k tbr, 1000k tbn
Stream mapping:
  Stream #0:0 -> #0:0 (rawvideo (native) -> h264 (libx264))
Press [q] to stop, [?] for help
[libx264 @ 0x64e6d458bf00] frame MB size (108x55) > level limit (1620)
[libx264 @ 0x64e6d458bf00] MB rate (178200) > level limit (40500)
[libx264 @ 0x64e6d458bf00] using cpu capabilities: MMX2 SSE2Fast SSSE3 SSE4.2 AVX FMA3 BMI2 AVX2
[libx264 @ 0x64e6d458bf00] profile Constrained Baseline, level 3.0, 4:2:0, 8-bit
Output #0, h264, to 'pipe:':
  Metadata:
    encoder         : Lavf60.16.100
  Stream #0:0: Video: h264, yuv420p(tv, progressive), 1718x878, q=2-31, 30 fps, 30 tbn
    Metadata:
      encoder         : Lavc60.31.102 libx264
    Side data:
      cpb: bitrate max/min/avg: 0/0/0 buffer size: 0 vbv_delay: N/A
frame=    0 fps=0.0 q=20.0 size=       0kB time=00:00:00.00 bitrate=N/A speed=   0x    frame=   17 fps=0.0 q=13.0 size=     344kB time=00:00:00.56 bitrate=4978.6kbits/s speed= 1.1x    frame=   32 fps= 31 q=23.0 size=     684kB time=00:00:01.06 bitrate=5256.2kbits/s speed=1.05x    frame=   48 fps= 31 q=13.0 size=     688kB time=00:00:01.60 bitrate=3522.6kbits/s speed=1.03x    frame=   63 fps= 31 q=20.0 size=    1026kB time=00:00:02.10 bitrate=4001.4kbits/s speed=1.03x    frame=   78 fps= 31 q=13.0 size=    1132kB time=00:00:02.60 bitrate=3566.8kbits/s speed=1.02x    frame=   94 fps= 31 q=18.0 size=    1460kB time=00:00:03.13 bitrate=3817.7kbits/s speed=1.02x    frame=  109 fps= 30 q=13.0 size=    1466kB time=00:00:03.63 bitrate=3306.3kbits/s speed=1.01x    frame=  124 fps= 30 q=18.0 size=    1801kB time=00:00:04.13 bitrate=3569.1kbits/s speed=1.01x    frame=  140 fps= 30 q=13.0 size=    1805kB time=00:00:04.66 bitrate=3168.7kbits/s speed=1.01x    frame=  156 fps= 30 q=15.0 size=    2138kB time=00:00:05.20 bitrate=3368.3kbits/s speed=1.01x    frame=  171 fps= 30 q=13.0 size=    2142kB time=00:00:05.70 bitrate=3079.2kbits/s speed=1.01x    frame=  187 fps= 30 q=14.0 size=    2475kB time=00:00:06.23 bitrate=3253.2kbits/s speed=1.01x    frame=  203 fps= 30 q=13.0 size=    2480kB time=00:00:06.76 bitrate=3002.5kbits/s speed=1.01x    frame=  218 fps= 30 q=14.0 size=    2812kB time=00:00:07.26 bitrate=3170.6kbits/s speed=1.01x    frame=  233 fps= 30 q=13.0 size=    3025kB time=00:00:07.76 bitrate=3190.7kbits/s speed=1.01x    frame=  249 fps= 30 q=13.0 size=    3347kB time=00:00:08.30 bitrate=3303.7kbits/s speed=1.01x    frame=  264 fps= 30 q=13.0 size=    3354kB time=00:00:08.80 bitrate=3122.7kbits/s speed=1.01x    frame=  280 fps= 30 q=13.0 size=    3694kB time=00:00:09.33 bitrate=3241.9kbits/s speed=1.01x    frame=  295 fps= 30 q=13.0 size=    3698kB time=00:00:09.83 bitrate=3081.1kbits/s speed=1.01x    frame=  311 fps= 30 q=13.0 size=    4038kB time=00:00:10.36 bitrate=3190.8kbits/s speed=1.01x    frame=  326 fps= 30 q=13.0 size=    4042kB time=00:00:10.86 bitrate=3046.9kbits/s speed=   1x    frame=  341 fps= 30 q=13.0 size=    4381kB time=00:00:11.36 bitrate=3157.1kbits/s speed=   1x    frame=  357 fps= 30 q=13.0 size=    4385kB time=00:00:11.90 bitrate=3018.5kbits/s speed=   1x    frame=  372 fps= 30 q=13.0 size=    4724kB time=00:00:12.40 bitrate=3120.8kbits/s speed=   1x    frame=  388 fps= 30 q=13.0 size=    4780kB time=00:00:12.93 bitrate=3027.5kbits/s speed=   1x    frame=  403 fps= 30 q=13.0 size=    5091kB time=00:00:13.43 bitrate=3104.8kbits/s speed=   1x    [x11grab @ 0x64e6d4582080] Failed to query xcb pointer
[in#0/x11grab @ 0x64e6d4581f80] Error during demuxing: Generic error in an external library
[in#0/x11grab @ 0x64e6d4581f80] Error retrieving a packet from demuxer: Generic error in an external library
[out#0/h264 @ 0x64e6d458a780] video:5126kB audio:0kB subtitle:0kB other streams:0kB global headers:0kB muxing overhead: 0.000000%
frame=  413 fps= 30 q=14.0 Lsize=    5126kB time=00:00:13.73 bitrate=3057.7kbits/s speed=0.993x    
